<svg xmlns="http://www.w3.org/2000/svg" width="145" height="145" viewBox="0 0 145 145"><defs><style>.a{fill:#6a0752;}.b{fill:#fff;}</style></defs><circle class="a" cx="72.5" cy="72.5" r="72.5"/><g transform="translate(29 -9.049)"><path class="b" d="M455.045,354.979a1.275,1.275,0,0,0-1.772.335l-2.93,4.294a8.9,8.9,0,0,0-1.543,4.687l-.3,8.059a1.275,1.275,0,0,0,2.549.095l.3-8.059a6.345,6.345,0,0,1,1.1-3.345l2.93-4.294a1.275,1.275,0,0,0-.335-1.772Z" transform="translate(-372.244 -256.221)"/><path class="b" d="M85.279,85.309,77.587,73.376V51.208a5.164,5.164,0,0,0-5.159-5.159h-57.8a5.164,5.164,0,0,0-5.159,5.159V61a1.275,1.275,0,0,0,2.55,0v-9.8A2.611,2.611,0,0,1,14.631,48.6h57.8a2.611,2.611,0,0,1,2.608,2.608V89.738a2.6,2.6,0,0,1-.216,1.035l-2.594-2.813V52.908a1.494,1.494,0,0,0-1.486-1.5H62.077a1.275,1.275,0,0,0,0,2.55h7.6V85.2L65.421,80.58a3.933,3.933,0,0,0-5.445-.326h-20.4a1.275,1.275,0,0,0,0,2.55H58.623a3.925,3.925,0,0,0,.461,2.35L60.1,86.986H26.961l1.015-1.833a3.911,3.911,0,0,0,.292-.675l.43.319a1.275,1.275,0,0,0,1.726-.193l3.861-4.487a1.275,1.275,0,1,0-1.933-1.663l-3.087,3.588-1.621-1.2a3.884,3.884,0,0,0-.359-.408,3.934,3.934,0,0,0-5.644.147l-2.8,3.037V53.96H56.979a1.275,1.275,0,1,0,0-2.55h-39.2a1.494,1.494,0,0,0-1.486,1.5V86.382L12.24,90.773a2.6,2.6,0,0,1-.216-1.035V66.1a1.275,1.275,0,0,0-2.55,0v7.273L1.781,85.309a11.123,11.123,0,0,0,.162,12.32l4.911,7.2a6.348,6.348,0,0,1,1.1,3.345l.3,8.059a1.275,1.275,0,1,0,2.548-.095l-.3-8.059a8.9,8.9,0,0,0-1.543-4.687l-4.911-7.2a8.578,8.578,0,0,1-.125-9.5l5.548-8.607V89.738a5.159,5.159,0,0,0,.96,2.994l-.689.747a1.275,1.275,0,1,0,1.875,1.729l11.9-12.9a1.385,1.385,0,0,1,2.23,1.61L18.593,96.839a2.619,2.619,0,0,0,.271,2.949,6.344,6.344,0,0,1,1.085,6.087,10.288,10.288,0,0,0-.573,3.156l-.137,5.91a1.275,1.275,0,0,0,2.55.06l.137-5.909a7.738,7.738,0,0,1,.431-2.375,8.909,8.909,0,0,0-1.524-8.549.083.083,0,0,1-.008-.093L22.583,94.9H64.477l1.759,3.177a.083.083,0,0,1-.009.093,8.909,8.909,0,0,0-1.523,8.549,7.733,7.733,0,0,1,.431,2.375L65.272,115a1.275,1.275,0,0,0,2.55-.06l-.138-5.909a10.278,10.278,0,0,0-.573-3.156A6.344,6.344,0,0,1,68.2,99.788a2.619,2.619,0,0,0,.271-2.949L61.315,83.918a1.385,1.385,0,0,1,2.23-1.61l11.9,12.9a1.275,1.275,0,1,0,1.875-1.729l-.689-.747a5.158,5.158,0,0,0,.96-2.994V78.083l5.548,8.607a8.545,8.545,0,0,1,.559,8.3A1.275,1.275,0,0,0,86,96.075a11.082,11.082,0,0,0-.725-10.766ZM23.995,92.346l1.555-2.81H61.51l1.555,2.81Z" transform="translate(0 0)"/><path class="b" d="M78.507,179.9v-1.842a1.275,1.275,0,1,0-2.55,0V179.9a1.275,1.275,0,0,0,2.55,0Z" transform="translate(-63.043 -108.507)"/><path class="b" d="M157.967,115.122a1.275,1.275,0,0,0-1.8.135l-3.088,3.588-1.865-1.381a1.275,1.275,0,1,0-1.518,2.049l2.817,2.087a1.275,1.275,0,0,0,1.726-.193l3.861-4.487A1.275,1.275,0,0,0,157.967,115.122Z" transform="translate(-123.818 -57.073)"/><path class="b" d="M250.556,128.008h-24a1.275,1.275,0,1,0,0,2.55h24a1.275,1.275,0,1,0,0-2.55Z" transform="translate(-186.979 -68.024)"/><path class="b" d="M250.556,187.616h-24a1.275,1.275,0,0,0,0,2.55h24a1.275,1.275,0,1,0,0-2.55Z" transform="translate(-186.979 -117.497)"/><path class="b" d="M160.487,174.72a1.275,1.275,0,0,0-1.8,0l-1.354,1.354-1.354-1.354a1.275,1.275,0,1,0-1.8,1.8l1.354,1.355-1.354,1.355a1.275,1.275,0,1,0,1.8,1.8l1.354-1.354,1.354,1.354a1.275,1.275,0,1,0,1.8-1.8l-1.354-1.355,1.354-1.355A1.275,1.275,0,0,0,160.487,174.72Z" transform="translate(-127.649 -106.484)"/></g></svg>