<svg xmlns="http://www.w3.org/2000/svg" width="145" height="145" viewBox="0 0 145 145"><defs><style>.a{fill:#6a0752;}.b{fill:#fff;}</style></defs><circle class="a" cx="72.5" cy="72.5" r="72.5"/><g transform="translate(-376.389 -4614.107)"><path class="b" d="M26.088,242.808v2.4a1.288,1.288,0,1,0,2.576,0v-2.4a1.288,1.288,0,0,0-2.576,0Z" transform="translate(383.782 4442.524)"/><path class="b" d="M99.609,141.006a1.288,1.288,0,0,0,2.57-.122v-13.4a1.288,1.288,0,0,0-2.57-.122l-5.8,1.959H90.482a3.748,3.748,0,0,0-3.744,3.744V135.3a3.75,3.75,0,0,0,2.837,3.632L91.01,142.4a1.288,1.288,0,0,0,2.38-.986l-.98-2.365h1.4Zm-.006-2.721-4.3-1.451v-5.3l4.3-1.451Zm-10.289-5.217a1.169,1.169,0,0,1,1.168-1.168h2.246v4.57H90.482a1.169,1.169,0,0,1-1.168-1.168v-2.234Z" transform="translate(333.548 4538.04)"/><path class="b" d="M257.319,137.592a1.288,1.288,0,0,0-1.288-1.288H234.323a1.288,1.288,0,1,0,0,2.576H256.03A1.288,1.288,0,0,0,257.319,137.592Z" transform="translate(212.376 4529.671)"/><path class="b" d="M246.3,171.919a1.288,1.288,0,0,0-1.288-1.288H234.323a1.288,1.288,0,1,0,0,2.576h10.692A1.288,1.288,0,0,0,246.3,171.919Z" transform="translate(212.376 4501.239)"/><path class="b" d="M199.194,239.069a10.508,10.508,0,0,0-10.5-10.5,1.288,1.288,0,0,0-1.288,1.288v9.209a1.288,1.288,0,0,0,1.288,1.288h9.209A1.288,1.288,0,0,0,199.194,239.069Zm-9.209-1.288v-6.528a7.941,7.941,0,0,1,6.528,6.528Z" transform="translate(250.166 4453.249)"/><path class="b" d="M296.367,288.041h7.771a1.288,1.288,0,0,0,1.288-1.288V272.318a1.288,1.288,0,0,0-1.288-1.288h-7.771a1.288,1.288,0,0,0-1.288,1.288v14.435A1.288,1.288,0,0,0,296.367,288.041Zm1.288-14.435h5.2v11.859h-5.2Z" transform="translate(160.987 4418.083)"/><path class="b" d="M377.423,198.274a1.288,1.288,0,0,0-1.288,1.288v26.93a1.288,1.288,0,0,0,1.288,1.288h7.771a1.288,1.288,0,0,0,1.288-1.288v-26.93a1.288,1.288,0,0,0-1.288-1.288Zm6.483,26.93h-5.2V200.85h5.2Z" transform="translate(93.851 4478.343)"/><path class="b" d="M124.674,119.553a1.288,1.288,0,0,0,1.288-1.288V102.347a1.573,1.573,0,0,0-1.563-1.579H53.233a1.573,1.573,0,0,0-1.563,1.579v50.161a1.573,1.573,0,0,0,1.563,1.579H124.4a1.573,1.573,0,0,0,1.563-1.579V123.416a1.288,1.288,0,1,0-2.576,0v28.1H54.246V103.344h69.14v14.921a1.288,1.288,0,0,0,1.288,1.288Z" transform="translate(362.593 4559.104)"/><path class="b" d="M112.787,263.046a9.453,9.453,0,0,1-4.93-1.382,1.288,1.288,0,1,0-1.343,2.2,12.053,12.053,0,0,0,18.324-10.291,1.288,1.288,0,0,0-1.288-1.288h-9.475v-9.475a1.288,1.288,0,0,0-1.288-1.288,12.052,12.052,0,0,0-10.337,18.246,1.288,1.288,0,0,0,2.208-1.326,9.477,9.477,0,0,1,6.841-14.257v9.388a1.288,1.288,0,0,0,1.288,1.288h9.388A9.49,9.49,0,0,1,112.787,263.046Z" transform="translate(321.954 4442.524)"/><path class="b" d="M81.587,73.024H18.759a1.288,1.288,0,1,0,0,2.576H81.587a3.772,3.772,0,0,1,3.768,3.767v50.161a3.772,3.772,0,0,1-3.768,3.767H6.344a3.772,3.772,0,0,1-3.768-3.767V79.368A3.772,3.772,0,0,1,6.344,75.6h7.266a1.288,1.288,0,1,0,0-2.576H6.344A6.351,6.351,0,0,0,0,79.368v50.161a6.351,6.351,0,0,0,6.344,6.344H81.587a6.351,6.351,0,0,0,6.344-6.344V79.368a6.351,6.351,0,0,0-6.344-6.344Z" transform="translate(405.389 4582.083)"/></g></svg>