<svg xmlns="http://www.w3.org/2000/svg" width="145" height="145" viewBox="0 0 145 145"><defs><style>.a{fill:#6a0752;}.b{fill:#fff;}</style></defs><circle class="a" cx="72.5" cy="72.5" r="72.5"/><g transform="translate(31 30.986)"><path class="b" d="M76.873,5.817H34.259v-3.4h4.852a1.2,1.2,0,0,0,0-2.408H27.544a1.2,1.2,0,1,0,0,2.408h4.307v3.4H15.408a5.34,5.34,0,0,0-5.334,5.334v10.9a1.2,1.2,0,0,0,2.408,0v-10.9a2.929,2.929,0,0,1,2.926-2.926H31.851v3.09h-13.1a1.437,1.437,0,0,0-1.429,1.442V48.617l-4.5,4.881a2.911,2.911,0,0,1-.34-1.371V26.992a1.2,1.2,0,0,0-2.408,0v7.779L1.87,47.5a11.677,11.677,0,0,0,.17,12.933l5.222,7.653a6.9,6.9,0,0,1,1.2,3.637l.32,8.57a1.2,1.2,0,1,0,2.407-.09l-.32-8.57a9.307,9.307,0,0,0-1.615-4.9L4.029,59.074A9.273,9.273,0,0,1,3.895,48.8l6.179-9.587V52.127a5.294,5.294,0,0,0,1.064,3.2l-.816.885a1.2,1.2,0,1,0,1.77,1.632L24.743,44.123a1.625,1.625,0,0,1,2.616,1.889L19.754,59.752a2.635,2.635,0,0,0,.272,2.966,6.9,6.9,0,0,1,1.18,6.62,10.789,10.789,0,0,0-.6,3.31l-.146,6.285a1.2,1.2,0,0,0,2.408.056l.146-6.285a8.379,8.379,0,0,1,.467-2.572,9.321,9.321,0,0,0-1.594-8.945.239.239,0,0,1-.025-.269l1.913-3.457H48.945v2.992l-3.833-1.866a3.681,3.681,0,0,0-4.39.907,4.315,4.315,0,0,0,.048,5.749l7.214,7.81a3.782,3.782,0,0,1,.961,2.548v5.412a1.2,1.2,0,0,0,2.408,0V75.6a6.131,6.131,0,0,0-1.6-4.182l-7.214-7.81A1.934,1.934,0,0,1,42.52,61.1a1.278,1.278,0,0,1,1.538-.344c1.084.527,5.417,2.639,5.586,2.719a1.205,1.205,0,0,0,1.709-1.092v-20.6a1.578,1.578,0,1,1,3.114,0v20.6a1.2,1.2,0,1,0,2.408,0V53.473c0-.348.4-.641.865-.641h1.383c.469,0,.865.294.865.641v8.906a1.2,1.2,0,1,0,2.408,0V53.473c0-.348.4-.641.865-.641h1.383c.469,0,.865.294.865.641v8.906a1.2,1.2,0,1,0,2.408,0V53.473c0-.348.4-.641.865-.641h1.383c.469,0,.865.294.865.641v8.906a1.324,1.324,0,0,0,.065.392l1.133,3.294a6,6,0,0,1,.3,2.429,1.2,1.2,0,0,0,1.1,1.3c.034,0,.068,0,.1,0a1.2,1.2,0,0,0,1.2-1.1,8.422,8.422,0,0,0-.423-3.412l-1.067-3.1V57.461h3.432a5.34,5.34,0,0,0,5.334-5.334V11.151a5.34,5.34,0,0,0-5.334-5.334ZM22.973,42.49l-3.242,3.515V13.723h12.12v15.1a7.348,7.348,0,0,0,3.6,13.755c.212,0,.422-.011.629-.029v.871A2.531,2.531,0,0,0,38.6,45.952H48.945v3.6H28.151l1.316-2.378a4.033,4.033,0,0,0-6.494-4.687Zm2.135,12.563,1.71-3.089H48.945v3.089Zm27.8-17.522a4.117,4.117,0,0,0-3.965,4.246v1.767H38.6a.12.12,0,0,1-.119-.12v-1.5a7.355,7.355,0,0,0,4.309-6.686,1.2,1.2,0,1,0-2.408,0,4.931,4.931,0,0,1-1.9,3.889V30.509a.12.12,0,0,1,.119-.119H54.9a1.2,1.2,0,1,0,0-2.408H38.6a2.531,2.531,0,0,0-2.528,2.528v9.624a4.939,4.939,0,0,1-2.551-9.448,1.2,1.2,0,0,0,.735-1.109V13.723H74.3V49.555H56.876v-3.6H67.218a2.531,2.531,0,0,0,2.528-2.528V30.509a2.531,2.531,0,0,0-2.528-2.528h-7.5a1.2,1.2,0,0,0,0,2.408h7.5a.12.12,0,0,1,.12.119V43.424a.12.12,0,0,1-.12.12H56.876V41.777a4.117,4.117,0,0,0-3.965-4.246ZM79.8,52.127a2.929,2.929,0,0,1-2.926,2.926H73.441v-1.58a2.871,2.871,0,0,0-.433-1.509H75.28a1.437,1.437,0,0,0,1.429-1.442V12.757a1.437,1.437,0,0,0-1.429-1.442H34.259V8.226H76.873A2.929,2.929,0,0,1,79.8,11.151Z" transform="translate(0)"/><path class="b" d="M87.95,186.555V184.6a1.2,1.2,0,0,0-2.408,0v1.959a1.2,1.2,0,1,0,2.408,0Z" transform="translate(-71.808 -153.936)"/><path class="b" d="M429.391,448.385a1.2,1.2,0,0,0-1.66.382l-1.476,2.358a6.768,6.768,0,0,0-1.02,3.6v2.518a1.2,1.2,0,1,0,2.408,0v-2.518a4.364,4.364,0,0,1,.653-2.321l1.476-2.358A1.2,1.2,0,0,0,429.391,448.385Z" transform="translate(-356.963 -376.23)"/><path class="b" d="M248.212,105.406h23.467a1.2,1.2,0,0,0,0-2.408H248.212a1.2,1.2,0,0,0,0,2.408Z" transform="translate(-207.35 -86.45)"/><path class="b" d="M266.461,136.881a1.2,1.2,0,0,0-1.2-1.2H248.212a1.2,1.2,0,0,0,0,2.408h17.045A1.2,1.2,0,0,0,266.461,136.881Z" transform="translate(-207.35 -113.882)"/></g></svg>