<svg xmlns="http://www.w3.org/2000/svg" width="145" height="145" viewBox="0 0 145 145"><defs><style>.a{fill:#6a0752;}.b{fill:#fff;}</style></defs><circle class="a" cx="72.5" cy="72.5" r="72.5"/><g transform="translate(31 6.73)"><path class="b" d="M407.4,70.563a1.971,1.971,0,0,0,1.966,0l5.313-3.068a1.966,1.966,0,0,0,0-3.4l-5.313-3.068a1.966,1.966,0,0,0-2.949,1.7V68.86A1.971,1.971,0,0,0,407.4,70.563Zm1.47-6.993,3.851,2.223-3.851,2.223Z" transform="translate(-339.941 -27.176)"/><path class="b" d="M380.175,178.563H363.134a3.271,3.271,0,0,0-3.267,3.267v17.041a3.271,3.271,0,0,0,3.267,3.267h17.041a3.271,3.271,0,0,0,3.267-3.267V181.83A3.271,3.271,0,0,0,380.175,178.563Zm.814,20.308a.815.815,0,0,1-.814.814H363.134a.815.815,0,0,1-.814-.814V181.83a.815.815,0,0,1,.814-.814h17.041a.815.815,0,0,1,.814.814Z" transform="translate(-301.007 -125.711)"/><path class="b" d="M403.723,228.387a5.517,5.517,0,1,0,5.517,5.517A5.523,5.523,0,0,0,403.723,228.387Zm0,8.581a3.064,3.064,0,1,1,3.064-3.064A3.067,3.067,0,0,1,403.723,236.968Z" transform="translate(-333.075 -167.386)"/><path class="b" d="M461.227,205.158A1.227,1.227,0,0,0,460,206.385v1.066a1.227,1.227,0,0,0,2.453,0v-1.066A1.227,1.227,0,0,0,461.227,205.158Z" transform="translate(-384.762 -147.956)"/><path class="b" d="M407.049,390.983a.254.254,0,0,1-.359,0l-.675-.675a1.227,1.227,0,0,0-1.735,1.735l.675.675a2.711,2.711,0,0,0,3.828,0l3.509-3.51a2.711,2.711,0,0,0,0-3.828l-.675-.675a1.227,1.227,0,0,0-1.735,1.735l.675.674a.254.254,0,0,1,0,.359Z" transform="translate(-337.855 -297.836)"/><path class="b" d="M42.6,121.5h0a1.227,1.227,0,0,0-1.227,1.227v.639l-7.137,2.969a1.226,1.226,0,0,0-1.223-1.16h0A1.227,1.227,0,0,0,31.79,126.4v.952l-5.511,2.292H12.461a3.616,3.616,0,0,0-3.611,3.611v.322H7.4V133.5a1.227,1.227,0,0,0-1.227-1.227h0A1.227,1.227,0,0,0,4.95,133.5v.182a6.069,6.069,0,0,0,0,11.929v.182a1.227,1.227,0,0,0,1.227,1.227h0A1.227,1.227,0,0,0,7.4,145.792v-.078H8.849v.322a3.611,3.611,0,0,0,3.611,3.612h.328V153.6a1.227,1.227,0,1,0,2.453,0v-3.951H21.21v3.878a.147.147,0,0,1-.085.133l-1.783.835a2.61,2.61,0,0,0-1.5,2.354v5.326a.928.928,0,0,1-.929.929h-.746a.929.929,0,0,1-.929-.929v-3.119a1.227,1.227,0,0,0-1.227-1.227h0a1.227,1.227,0,0,0-1.227,1.227v3.119a3.381,3.381,0,0,0,3.382,3.383h.747a3.38,3.38,0,0,0,3.382-3.382v-5.326a.147.147,0,0,1,.085-.133l1.783-.835a2.611,2.611,0,0,0,1.5-2.354v-3.878h2.613l5.511,2.293v.952a1.227,1.227,0,0,0,1.227,1.227h0a1.226,1.226,0,0,0,1.223-1.159l7.137,2.97v.639A1.227,1.227,0,0,0,42.6,157.8h0a1.227,1.227,0,0,0,1.227-1.227v-1.457h0V122.727A1.226,1.226,0,0,0,42.6,121.5ZM15.712,132.1h5.027v1.745a.907.907,0,0,1-.907.907H16.619a.907.907,0,0,1-.907-.907ZM2.453,139.645a3.608,3.608,0,0,1,2.5-3.436v6.873A3.608,3.608,0,0,1,2.453,139.645ZM7.4,143.26v-7.23H8.849c0,1.1,0,6.1,0,7.23Zm4.239,3.594a1.151,1.151,0,0,1-.339-.819c0-3.183,0-9.614,0-12.78a1.158,1.158,0,0,1,1.158-1.158h.8v1.745a3.365,3.365,0,0,0,3.361,3.361h3.213a3.359,3.359,0,0,0,3.361-3.36V132.1h2.1c0,1.827,0,13.3,0,15.1H12.46a1.15,1.15,0,0,1-.819-.339Zm16.108.749c0-1.813,0-14.085,0-15.912l4.04-1.68,0,19.274Zm6.493,2.7,0-21.315,7.134-2.967v27.251Z" transform="translate(0 -77.981)"/><path class="b" d="M296.835,224.938h-4.926a1.227,1.227,0,1,0,0,2.453h4.926a1.227,1.227,0,1,0,0-2.453Z" transform="translate(-243.138 -164.501)"/><path class="b" d="M283.741,140.571l3.483-3.483a1.227,1.227,0,1,0-1.735-1.735l-3.483,3.483a1.227,1.227,0,1,0,1.735,1.735Z" transform="translate(-235.58 -89.268)"/><path class="b" d="M283.162,293.706a1.227,1.227,0,0,0-1.735,1.735l3.483,3.483a1.227,1.227,0,1,0,1.735-1.735Z" transform="translate(-235.096 -221.721)"/><path class="b" d="M371.943,340.637a11.732,11.732,0,0,0-10.5,16.961l-1.187,4.432a1.226,1.226,0,0,0,1.5,1.5l4.14-1.109a11.728,11.728,0,0,0,13.287-.825,1.227,1.227,0,1,0-1.515-1.93,9.272,9.272,0,0,1-10.885.411,1.226,1.226,0,0,0-1-.166l-2.608.7.762-2.842a1.227,1.227,0,0,0-.112-.912,9.278,9.278,0,1,1,16.55-.613,1.227,1.227,0,0,0,2.228,1.027,11.731,11.731,0,0,0-10.658-16.634Z" transform="translate(-301.294 -261.276)"/><path class="b" d="M374.18,28.27H362.83a1.227,1.227,0,0,0,0,2.453H374.18a1.19,1.19,0,0,1,1.188,1.188V45.322a1.19,1.19,0,0,1-1.188,1.188H355.156a1.19,1.19,0,0,1-1.188-1.188V31.912a1.19,1.19,0,0,1,1.188-1.188h2.77a1.227,1.227,0,1,0,0-2.453h-2.77a3.646,3.646,0,0,0-3.642,3.642V45.322a3.646,3.646,0,0,0,3.642,3.642H374.18a3.646,3.646,0,0,0,3.642-3.642V31.912A3.645,3.645,0,0,0,374.18,28.27Z" transform="translate(-294.02)"/></g></svg>