<svg xmlns="http://www.w3.org/2000/svg" width="145" height="145" viewBox="0 0 145 145"><defs><style>.a{fill:#6a0752;}.b{fill:#fff;}</style></defs><circle class="a" cx="72.5" cy="72.5" r="72.5"/><g transform="translate(32 32)"><path class="b" d="M152.749,56.662a1.2,1.2,0,0,0,2.388-.107V44a1.2,1.2,0,0,0-2.388-.107L147.3,45.731h-3.117a3.5,3.5,0,0,0-3.5,3.5v2.095a3.5,3.5,0,0,0,2.656,3.4l1.347,3.25a1.2,1.2,0,0,0,2.211-.916l-.924-2.231H147.3Zm-.005-2.528-4.05-1.367v-4.98l4.05-1.367Zm-9.665-4.9a1.106,1.106,0,0,1,1.105-1.105H146.3v4.305h-2.116a1.106,1.106,0,0,1-1.1-1.105V49.229Z" transform="translate(-118.235 -35.972)"/><path class="b" d="M431.665,324.563a1.2,1.2,0,0,0-1.2-1.2h-7.222a1.2,1.2,0,0,0,0,2.394h7.222A1.2,1.2,0,0,0,431.665,324.563Z" transform="translate(-354.701 -271.765)"/><path class="b" d="M423.246,351.951a1.2,1.2,0,0,0,0,2.394h5.626a1.2,1.2,0,0,0,0-2.394Z" transform="translate(-354.701 -295.789)"/><path class="b" d="M275.761,63.549h9.4a1.2,1.2,0,0,0,0-2.394h-9.4a1.2,1.2,0,0,0,0,2.394Z" transform="translate(-230.751 -51.396)"/><path class="b" d="M275.761,97.946h18.97a1.2,1.2,0,0,0,0-2.394h-18.97a1.2,1.2,0,0,0,0,2.394Z" transform="translate(-230.751 -80.304)"/><path class="b" d="M162.842,265.464a1.2,1.2,0,1,0,0-2.394h-6.535a1.2,1.2,0,1,0,0,2.394Z" transform="translate(-130.358 -221.091)"/><path class="b" d="M166.795,348.328a2.942,2.942,0,0,0,5.237,0c.415-.559.515-.633.7-.633s.282.075.7.633a3.167,3.167,0,0,0,2.619,1.6,1.2,1.2,0,1,0,0-2.394c-.181,0-.282-.075-.7-.633a2.942,2.942,0,0,0-5.237,0c-.415.559-.515.633-.7.633s-.282-.075-.7-.633a3.167,3.167,0,0,0-2.618-1.6,1.2,1.2,0,1,0,0,2.394C166.279,347.695,166.38,347.769,166.795,348.328Z" transform="translate(-138.588 -290.2)"/><path class="b" d="M160.155,387.464a1.2,1.2,0,0,0,1.2,1.2h11.686a1.2,1.2,0,1,0,0-2.394H161.352A1.2,1.2,0,0,0,160.155,387.464Z" transform="translate(-134.598 -324.629)"/><path class="b" d="M80.505,53.637a1.2,1.2,0,0,0,1.2-1.2v-4.7a2.427,2.427,0,0,0-2.424-2.424H71.835V2.7a2.707,2.707,0,0,0-2.7-2.7H43.244a1.2,1.2,0,0,0,0,2.394H69.131a.31.31,0,0,1,.31.31V45.32H55.026A2.427,2.427,0,0,0,52.6,47.744V62.412a2.427,2.427,0,0,0,2.424,2.424H69.442v4.536a.31.31,0,0,1-.31.31H18.954a.31.31,0,0,1-.31-.31V51.681H37.032a2.607,2.607,0,0,0,2.6-2.6V29.24a2.607,2.607,0,0,0-2.6-2.6H18.644V2.7a.31.31,0,0,1,.31-.31h19.5a1.2,1.2,0,0,0,0-2.394h-19.5a2.707,2.707,0,0,0-2.7,2.7V26.636H2.6A2.607,2.607,0,0,0,0,29.24V49.077a2.607,2.607,0,0,0,2.6,2.6H5.287a1.2,1.2,0,1,0,0-2.394H2.6a.211.211,0,0,1-.211-.211V29.24a.2.2,0,0,1,.026-.1L18.03,39.415a3.25,3.25,0,0,0,3.576,0l15.61-10.271a.206.206,0,0,1,.026.1V49.077a.211.211,0,0,1-.211.211H10.072a1.2,1.2,0,1,0,0,2.394H16.25V69.373a2.707,2.707,0,0,0,2.7,2.7H69.131a2.707,2.707,0,0,0,2.7-2.7V64.837h7.443A2.427,2.427,0,0,0,81.7,62.412V57.225a1.2,1.2,0,1,0-2.394,0v5.187a.031.031,0,0,1-.031.031H55.026A.031.031,0,0,1,55,62.412V47.745a.031.031,0,0,1,.031-.031H79.278a.031.031,0,0,1,.031.031v4.7a1.2,1.2,0,0,0,1.2,1.2ZM20.29,37.415a.859.859,0,0,1-.945,0L6.6,29.03H33.035Z"/><path class="b" d="M150.508,462.242h-2a1.2,1.2,0,0,0-2.358,0H108.394a7.506,7.506,0,0,0-4.327,1.364l-1.722,1.206a1.2,1.2,0,0,0,0,1.961l1.722,1.206a7.506,7.506,0,0,0,4.327,1.364h42.115a3.55,3.55,0,1,0,0-7.1Zm0,4.707H108.394a5.126,5.126,0,0,1-2.954-.931l-.322-.225.322-.225a5.126,5.126,0,0,1,2.954-.931h42.115a1.157,1.157,0,1,1,0,2.313Z" transform="translate(-85.585 -387.64)"/></g></svg>