<svg xmlns="http://www.w3.org/2000/svg" width="205.137" height="77.112" viewBox="0 0 205.137 77.112"><defs><style>.a,.b{fill:#fff;}.a{opacity:0.53;}</style></defs><g transform="translate(-1162 -654)"><g transform="translate(1162 654)"><g transform="translate(0 0)"><path class="a" d="M77.508,136.274,51.936,98.981,77.508,60.7l24.08,37.789Z" transform="translate(-40.684 -59.162)"/><path class="a" d="M66.633,140.663l-36.785-26.3L40.784,69.644,76.337,96.918Z" transform="translate(-29.848 -63.551)"/><path class="a" d="M91.194,140.663,79.919,96.873l37.124-27.229,9.7,43.746Z" transform="translate(-54.412 -63.551)"/><path class="b" d="M215.678,168.254c0,2.956,0,5.912,0,8.868,0,.508.13,1.216-.373,1.41-.446.172-.813-.437-1.16-.779-2.607-2.567-5.224-5.124-7.82-7.7-2.024-2.009-4.025-4.043-6.033-6.068-.1-.1-.191-.219-.355-.184-.2.042-.254.2-.266.373-.016.235-.017.472-.017.709q0,5.782,0,11.564a6.333,6.333,0,0,1-.015.638c-.089.857-.361,1.068-1.334,1.058-.911-.01-1.079-.224-1.235-1.091a15.287,15.287,0,0,1,.023-2.754c-.009-4.541,0-9.081-.009-13.621,0-.589-.089-1.177-.1-1.766-.011-.387.05-.8.468-.95.377-.132.654.127.918.392,2.477,2.492,4.972,4.966,7.437,7.47.428.435.7.4,1.1-.007,2.466-2.48,5-4.891,7.4-7.435a1.015,1.015,0,0,1,1-.409c.411.14.375.622.376.991C215.681,162.059,215.678,165.157,215.678,168.254Zm-2.6,4.625v-9.323a2.328,2.328,0,0,0-.341.219q-2.056,2-4.108,4c-.393.382-.152.686.118.967.7.732,1.373,1.5,2.139,2.162A13.364,13.364,0,0,0,213.081,172.88Z" transform="translate(-111.833 -106.858)"/><path class="b" d="M202.294,57.689c1.112,0,2.224-.009,3.335,0a7.472,7.472,0,0,1,6.439,3.317,6.767,6.767,0,0,1,1.3,5.006,7.605,7.605,0,0,1-3.479,5.271,7.505,7.505,0,0,1-4.353,1.174c-1.608-.031-3.217.01-4.825-.012-.575-.008-.815.194-.8.783.027.992.014,1.986,0,2.98-.012.877-.266,1.137-1.132,1.206-1.454.118-1.9-.268-1.819-1.748.24-4.656.036-9.315.111-13.972a19.137,19.137,0,0,1-.015-3.038c.111-.644.36-.981,1.046-.972C199.5,57.7,200.9,57.69,202.294,57.689Zm-2.372,7.347h0q0,1.915,0,3.829c0,.387.046.669.582.659,2.126-.041,4.256-.1,6.379-.024,1.422.053,3.286-1.748,3.525-2.952a5.068,5.068,0,0,0-.477-3.89,4.194,4.194,0,0,0-3.418-2.091c-1.908-.11-3.827-.012-5.741-.038-.657-.009-.875.264-.861.89C199.941,62.625,199.922,63.831,199.922,65.036Z" transform="translate(-111.827 -57.685)"/><path class="b" d="M197.169,111.008c0-.875-.011-1.75,0-2.625.013-.8.282-1.066,1.062-1.1,1.392-.06,1.724.221,1.762,1.64.039,1.465-.036,2.935.034,4.4a11.144,11.144,0,0,0,3.461,7.422,11.527,11.527,0,0,0,3.633,2.512,5.521,5.521,0,0,0,2.537.776c.8-.05,1.507.481,2.285.407a19.225,19.225,0,0,0,4.537-.888A12.825,12.825,0,0,0,220.751,121a11.386,11.386,0,0,0,2.77-3.894,10.672,10.672,0,0,0,1.069-4.977c-.053-1.227-.022-2.459,0-3.688.009-.562.087-1.1.848-1.155,1.335-.1,1.711.049,1.836.978a12.456,12.456,0,0,1-.059,4.428c-.152.682-.031,1.42-.143,2.116a14.67,14.67,0,0,1-1.775,4.712,14.176,14.176,0,0,1-3.61,4.222,16.32,16.32,0,0,1-5.4,2.795,13.861,13.861,0,0,1-6.794.3,14.864,14.864,0,0,1-9.791-6.476,16.531,16.531,0,0,1-2.468-6.378,15.97,15.97,0,0,1-.031-2.972Z" transform="translate(-111.918 -82.004)"/><path class="b" d="M420.018,180.052c0,1.631-.064,3.266.018,4.894a5.462,5.462,0,0,1-1.866,4.252,6.1,6.1,0,0,1-4.606,1.682,6.428,6.428,0,0,1-5.041-2.653c-.463-.533-.373-.882.181-1.3.169-.127.327-.27.5-.393a1.063,1.063,0,0,1,1.574.146c1.2,1.605,2.774,1.8,4.553,1.255a3.643,3.643,0,0,0,2-3.033c-.044-.463-.288-.257-.482-.143a6.738,6.738,0,0,1-3.384.829,5.452,5.452,0,0,1-3.6-1.2,6.413,6.413,0,0,1-2.768-5.465,6.662,6.662,0,0,1,2.314-4.672c1.763-1.648,3.838-1.582,5.972-1.43.607.043,1.04.536,1.593.742.176.066.354.221.525.075.515-.44,1.125-.25,1.7-.3.614-.052.839.222.832.829C420,176.127,420.018,178.089,420.018,180.052Zm-10.121-.978a3.549,3.549,0,0,0,3.594,3.8c2.37-.019,3.854-1.447,3.856-3.576,0-2.5-1.251-3.775-3.713-3.977C411.91,175.186,409.533,177.155,409.9,179.075Z" transform="translate(-214.906 -114.129)"/><path class="b" d="M261.577,129.739c0-2.105.058-4.214-.019-6.316-.063-1.739.926-2.011,2.448-1.542a1.807,1.807,0,0,0,1.438-.083,5.371,5.371,0,0,1,4.479-.41,7.773,7.773,0,0,1,3.468,2.43,4.221,4.221,0,0,1,.95,2.019c.057.495.487.854.437,1.4-.232,2.545-1.108,4.683-3.5,5.969a6.03,6.03,0,0,1-5.992.059c-.6-.316-.72-.24-.73.471-.012.923.005,1.846-.007,2.768-.011.791-.272,1.055-1.06,1.107-.188.012-.379.009-.568.007-1.079-.013-1.336-.265-1.338-1.35C261.574,134.092,261.578,131.915,261.577,129.739Zm6.671-5.757c-2.347,0-3.566,1.3-3.736,3.55a3.767,3.767,0,0,0,3.532,3.729c2.078-.09,3.815-1.4,3.856-3.07C271.97,125.424,270.424,123.749,268.248,123.982Z" transform="translate(-143.516 -88.771)"/><path class="b" d="M263.795,79.849q0-3.263,0-6.525c0-.487-.117-1.068.476-1.292a1.791,1.791,0,0,1,1.879.146c.267.218.568.343.84.138a10.781,10.781,0,0,1,2.071-.847,2.758,2.758,0,0,1,1.745-.128c2.581.52,4.746,1.807,5.492,4.411.889,3.1.114,6.038-3.04,7.731a6.883,6.883,0,0,1-3.284.909,6.177,6.177,0,0,1-2.477-.709c-.885-.384-1-.365-1,.628,0,.78.007,1.56-.007,2.34-.015.879-.266,1.116-1.162,1.134-.19,0-.379.006-.568,0-.781-.026-.956-.188-.96-.983C263.789,84.483,263.8,82.166,263.795,79.849Zm6.312,1.678a3.905,3.905,0,0,0,3.932-3.632c.085-1.572-1.879-3.811-3.616-3.771-2.529.059-3.9,1.658-3.886,3.738A3.532,3.532,0,0,0,270.107,81.527Z" transform="translate(-144.611 -64.343)"/><path class="b" d="M326.614,180.02c-1.372,0-2.743,0-4.115,0-.207,0-.455-.055-.591.149-.15.227.077.381.168.564.91,1.855,2.831,2.069,4.441,1.664a3.291,3.291,0,0,0,1.49-1.155,1.05,1.05,0,0,1,1.5-.16,8.141,8.141,0,0,1,.652.547.7.7,0,0,1,.117,1.059,6.1,6.1,0,0,1-10.34-.231,6.482,6.482,0,0,1-1.172-3.427,7.172,7.172,0,0,1,3.622-5.911,6.565,6.565,0,0,1,2.706-.664,5.846,5.846,0,0,1,3.472.975,7.429,7.429,0,0,1,2.729,3.524,6.063,6.063,0,0,1,.186,2.591c-.023.48-.457.467-.817.468-1.348,0-2.7,0-4.044,0Zm-4.606-2.611c.266.021.451.049.635.049q2.7,0,5.392-.007c.354,0,.51-.186.293-.5a3.57,3.57,0,0,0-2.738-1.772A3.39,3.39,0,0,0,322.007,177.409Z" transform="translate(-171.578 -113.987)"/><path class="b" d="M252.6,177.664c-.151,1.641.2,3.641.025,5.654-.127,1.48-.651,2.111-2.014,1.566a2.914,2.914,0,0,0-2.473.242,5.254,5.254,0,0,1-4.088,0,6.394,6.394,0,0,1-3.76-3.31,5.2,5.2,0,0,1-.733-3.259,7.231,7.231,0,0,1,2.856-4.742c1.713-1.229,3.556-1.09,5.428-.964a4.092,4.092,0,0,1,1.384.67c.189.1.367.252.586.1a3.064,3.064,0,0,1,2-.248c.539,0,.8.323.795.875C252.589,175.266,252.6,176.283,252.6,177.664Zm-2.849,1.4a3.673,3.673,0,0,0-3.684-3.724,3.726,3.726,0,0,0-3.658,4.14,3.687,3.687,0,0,0,7.342-.416Z" transform="translate(-132.693 -114.145)"/><path class="b" d="M295.391,180.136q1.143-1.379,2.285-2.759c1.139-1.379,2.262-2.771,3.421-4.133a3.519,3.519,0,0,1,2.958-.249c.294.218.2.453.035.674-.549.735-1.095,1.474-1.669,2.19-.694.865-1.394,1.729-2.136,2.553a.905.905,0,0,0,.062,1.489c1.368,1.306,2.514,2.815,3.751,4.241a.9.9,0,0,1,.285.958c-.157.4-.542.28-.857.334a3.029,3.029,0,0,1-3.171-1.5c-.557-.784-1.278-1.45-1.882-2.2-.338-.421-.568-.349-.9-.012a30.82,30.82,0,0,0-2.279,2.8,2.029,2.029,0,0,1-1.925.921c-.755-.074-1.013-.327-1.074-1.105-.164-2.082.117-4.155.074-6.234-.027-1.346-.1-2.691-.11-4.037-.011-1.029.327-1.278,1.577-1.264,1.051.011,1.378.3,1.381,1.248.005,1.75,0,3.5,0,5.25v.77Z" transform="translate(-158.569 -114.145)"/><path class="b" d="M245.423,77.964a6.552,6.552,0,0,1-6.561,6.447,6.482,6.482,0,0,1-6.443-6.5c-.191-3.287,3.24-6.628,6.551-6.491A6.685,6.685,0,0,1,245.423,77.964ZM238.909,81.6a3.508,3.508,0,0,0,3.69-3.512,3.609,3.609,0,0,0-3.553-3.847,3.9,3.9,0,0,0-3.87,3.609C235.128,79.628,237.043,81.841,238.909,81.6Z" transform="translate(-129.219 -64.42)"/><path class="b" d="M382.452,181.216c0,1.041.012,2.083,0,3.123-.013.856-.218,1.05-1.045,1.071-1.505.038-1.743-.232-1.555-1.738a5.917,5.917,0,0,0,.034-.85c-.062-2.836.132-5.675-.106-8.51-.058-.686.223-.963.9-.981a6.519,6.519,0,0,1,1.627.073,1.418,1.418,0,0,0,1.019-.193,4.467,4.467,0,0,1,3.939-.021,5.673,5.673,0,0,1,2.137,1.578,5.542,5.542,0,0,1,1.274,3.864c.026,1.845.009,3.691.007,5.536,0,.461-.021.976-.523,1.142a2.273,2.273,0,0,1-1.728-.052c-.344-.169-.3-.562-.3-.891q-.008-2.875,0-5.749a2.88,2.88,0,0,0-1-2.4,2.506,2.506,0,0,0-2.372-.741c-1.317.443-2.289,1.2-2.289,2.756q0,1.491,0,2.981Z" transform="translate(-201.507 -114.128)"/><path class="b" d="M271.074,179.2c0-1.585,0-3.17,0-4.755,0-.914.165-1.149,1.08-1.057a14.739,14.739,0,0,0,4.029-.515,4.609,4.609,0,0,1,1.829.107,1.034,1.034,0,0,1,.86,1.136,1.543,1.543,0,0,1-1.869,1.6,2.524,2.524,0,0,0-2.992,2.53c.132,1.931.034,3.877.027,5.817,0,1.117-.459,1.473-1.838,1.465-.7,0-1.121-.515-1.127-1.43C271.065,182.462,271.073,180.83,271.074,179.2Z" transform="translate(-148.184 -114.167)"/><path class="b" d="M350.484,173.877c0-2.222.023-4.444-.01-6.665-.022-1.447.647-1.557,1.977-1.336.421.07.57.461.575.876.005.52.025,1.041,0,1.56-.023.537.184.794.741.764a10,10,0,0,1,1.063.022.91.91,0,0,1,.48.092c.684.543.4,1.3.362,1.978a.77.77,0,0,1-.883.732c-.047,0-.094,0-.142,0-1.744.018-1.613-.242-1.616,1.657,0,2.411,0,4.821,0,7.232,0,1.013-.31,1.335-1.221,1.327s-1.316-.4-1.32-1.364C350.479,178.462,350.485,176.169,350.484,173.877Z" transform="translate(-187.136 -110.717)"/><path class="b" d="M370.327,179.085c0,1.7,0,3.4,0,5.1,0,.924-.377,1.252-1.393,1.257s-1.436-.315-1.439-1.216q-.017-5.1,0-10.209c0-.991.3-1.216,1.47-1.207,1.1.008,1.359.238,1.363,1.237C370.332,175.729,370.327,177.407,370.327,179.085Z" transform="translate(-195.481 -114.163)"/></g></g></g></svg>