<svg xmlns="http://www.w3.org/2000/svg" width="145" height="145" viewBox="0 0 145 145"><defs><style>.a{fill:#6a0752;}.b{fill:#fff;}</style></defs><circle class="a" cx="72.5" cy="72.5" r="72.5"/><g transform="translate(31 -27.384)"><path class="b" d="M24.836,232v2.132a1.2,1.2,0,1,0,2.406,0V232a1.2,1.2,0,0,0-2.406,0Z" transform="translate(-20.852 -134.676)"/><path class="b" d="M287.353,226.073a9.117,9.117,0,1,0,15.566-6.448A9.109,9.109,0,0,0,287.353,226.073Zm13.865,4.746a6.72,6.72,0,0,1-9.94-.494l3.21-2.43a3.119,3.119,0,1,0-1.569-1.831L290.1,228.2a6.714,6.714,0,0,1,11.115-6.87h0A6.708,6.708,0,0,1,301.218,230.819Zm-6.043-5.708a.714.714,0,1,1,.714.714A.715.715,0,0,1,295.174,225.111Z" transform="translate(-241.253 -123.058)"/><path class="b" d="M455.788,383.675a1.2,1.2,0,0,0-1.7,1.7L455.712,387a1.2,1.2,0,0,0,1.7-1.7Z" transform="translate(-380.941 -262.734)"/><path class="b" d="M96.09,142.751a1.2,1.2,0,0,0,1.2-1.2V126.019a1.2,1.2,0,1,0-2.406,0v.068l-6.963,2.35h-3.9a4.055,4.055,0,0,0-4.05,4.05v2.59a4.057,4.057,0,0,0,3.21,3.962l1.72,4.152a1.2,1.2,0,0,0,2.223-.921l-1.3-3.142h2.1l6.963,2.35v.068A1.2,1.2,0,0,0,96.09,142.751ZM82.38,132.488a1.645,1.645,0,0,1,1.644-1.644h2.894v5.878H84.023a1.645,1.645,0,0,1-1.643-1.644Zm6.944,4.573v-6.557l5.562-1.878v10.312Z" transform="translate(-67.144 -45.699)"/><path class="b" d="M222.105,133.033h13.361a1.2,1.2,0,1,0,0-2.406H222.105a1.2,1.2,0,0,0,0,2.406Z" transform="translate(-185.463 -50.578)"/><path class="b" d="M222.105,165.714h6.581a1.2,1.2,0,0,0,0-2.406h-6.581a1.2,1.2,0,0,0,0,2.406Z" transform="translate(-185.463 -78.016)"/><path class="b" d="M80.284,119.113l-1.969-1.969V76.083a5.706,5.706,0,0,0-5.7-5.7H16.439a1.2,1.2,0,0,0,0,2.406H72.616a3.3,3.3,0,0,1,3.293,3.293v38.655l-1.831-1.831V76.083a1.456,1.456,0,0,0-1.448-1.462H9.339a1.456,1.456,0,0,0-1.448,1.462v34.11a1.2,1.2,0,0,0,2.406,0V77.028H71.671V110.5l-3.187-3.187a13.993,13.993,0,0,0-1.048-11.05,1.2,1.2,0,1,0-2.106,1.165,11.55,11.55,0,1,1-2.81-3.367A1.2,1.2,0,1,0,64.043,92.2,13.955,13.955,0,0,0,41.4,104.966l-2.057-1.112a3.121,3.121,0,1,0-6.1.5l-6.732,6.737-3.031-1.142a3.119,3.119,0,1,0-6.2.714l-4.055,3.483a1.2,1.2,0,1,0,1.568,1.825l3.731-3.206a3.107,3.107,0,0,0,4.241-.513l3.619,1.363a1.2,1.2,0,0,0,1.275-.275l7.088-7.093a3.108,3.108,0,0,0,3.421-.292l4.069,2.2a13.962,13.962,0,0,0,17.281,8.13l3.461,3.461H10.3V115a1.2,1.2,0,1,0-2.406,0v5.689a1.456,1.456,0,0,0,1.448,1.462H65.392l1.831,1.831H5.7a3.3,3.3,0,0,1-3.293-3.293V76.083A3.3,3.3,0,0,1,5.7,72.79h5.929a1.2,1.2,0,1,0,0-2.406H5.7a5.706,5.706,0,0,0-5.7,5.7v44.61a5.706,5.706,0,0,0,5.7,5.7H69.63l1.687,1.687a6.34,6.34,0,0,0,8.966-8.966ZM20.376,110.97a.714.714,0,1,1,.714-.714A.715.715,0,0,1,20.376,110.97Zm15.869-6.748a.714.714,0,1,1,.714-.714A.715.715,0,0,1,36.246,104.222Zm42.336,22.156a3.938,3.938,0,0,1-5.563,0L61.906,115.265a13.857,13.857,0,0,0,5.56-5.565l11.115,11.116A3.931,3.931,0,0,1,78.582,126.378Z"/></g></svg>