<svg xmlns="http://www.w3.org/2000/svg" width="235" height="88.338" viewBox="0 0 235 88.338"><defs><style>.a{fill:#9a7faa;opacity:0.53;}.b{fill:#ef4188;}</style></defs><g transform="translate(-29.848 -57.685)"><path class="a" d="M81.231,147.277,51.936,104.555,81.231,60.7l27.586,43.29Z" transform="translate(-9.197 -1.254)"/><path class="a" d="M71.988,151l-42.14-30.126L42.376,69.644,83.1,100.888Z" transform="translate(0 -4.98)"/><path class="a" d="M92.836,151,79.919,100.837l42.528-31.193,11.116,50.114Z" transform="translate(-20.85 -4.98)"/><path class="b" d="M218.4,169.758c0,3.387.005,6.773,0,10.159,0,.582.149,1.393-.428,1.615-.511.2-.931-.5-1.329-.892-2.986-2.94-5.984-5.87-8.958-8.822-2.319-2.3-4.61-4.632-6.912-6.952-.116-.117-.218-.25-.406-.211-.227.048-.291.231-.3.427-.019.27-.02.541-.02.812q0,6.623,0,13.247a7.252,7.252,0,0,1-.017.731c-.1.982-.413,1.224-1.528,1.212-1.044-.012-1.237-.257-1.415-1.249a17.519,17.519,0,0,1,.026-3.155c-.011-5.2,0-10.4-.011-15.6,0-.675-.1-1.349-.12-2.023-.012-.443.057-.92.536-1.088.432-.151.749.145,1.051.449,2.837,2.854,5.7,5.689,8.519,8.557.49.5.8.458,1.264-.008,2.825-2.841,5.73-5.6,8.482-8.517a1.162,1.162,0,0,1,1.142-.469c.47.16.43.712.431,1.136C218.405,162.661,218.4,166.21,218.4,169.758Zm-2.975,5.3v-10.68a2.665,2.665,0,0,0-.39.25q-2.356,2.289-4.706,4.584c-.45.438-.174.786.135,1.108.8.839,1.573,1.72,2.45,2.476A15.31,15.31,0,0,0,215.427,175.057Z" transform="translate(-69.59 -41.74)"/><path class="b" d="M203.071,57.69c1.274,0,2.547-.01,3.821,0a8.56,8.56,0,0,1,7.376,3.8,7.752,7.752,0,0,1,1.495,5.734,8.712,8.712,0,0,1-3.986,6.038,8.6,8.6,0,0,1-4.987,1.345c-1.842-.035-3.685.012-5.527-.014-.658-.009-.934.222-.915.9.031,1.137.016,2.275,0,3.413-.013,1-.305,1.3-1.3,1.382-1.666.135-2.171-.307-2.083-2,.275-5.334.041-10.671.127-16.006a21.927,21.927,0,0,1-.017-3.481c.127-.738.413-1.124,1.2-1.113C199.874,57.705,201.473,57.691,203.071,57.69Zm-2.717,8.417h0q0,2.194,0,4.386c0,.443.053.767.667.755,2.435-.047,4.875-.118,7.308-.028,1.629.061,3.765-2,4.038-3.381a5.806,5.806,0,0,0-.547-4.456,4.8,4.8,0,0,0-3.915-2.4c-2.186-.125-4.385-.013-6.577-.043-.752-.011-1,.3-.987,1.02C200.375,63.345,200.354,64.726,200.354,66.107Z" transform="translate(-69.585)"/><path class="b" d="M197.172,111.554c0-1-.012-2.005,0-3.007.015-.917.323-1.221,1.216-1.259,1.595-.068,1.975.253,2.019,1.879.045,1.678-.041,3.362.039,5.038a12.766,12.766,0,0,0,3.965,8.5,13.2,13.2,0,0,0,4.162,2.878,6.324,6.324,0,0,0,2.906.889c.915-.057,1.726.551,2.618.466a22.023,22.023,0,0,0,5.2-1.017A14.691,14.691,0,0,0,224.188,123a13.043,13.043,0,0,0,3.174-4.461,12.225,12.225,0,0,0,1.224-5.7c-.061-1.406-.026-2.817,0-4.225.011-.644.1-1.258.971-1.323,1.53-.114,1.96.057,2.1,1.12a14.269,14.269,0,0,1-.067,5.073c-.174.781-.036,1.627-.164,2.424a16.805,16.805,0,0,1-2.034,5.4,16.241,16.241,0,0,1-4.136,4.837,18.7,18.7,0,0,1-6.182,3.2,15.879,15.879,0,0,1-7.783.343,17.027,17.027,0,0,1-11.216-7.419,18.938,18.938,0,0,1-2.828-7.306,18.294,18.294,0,0,1-.036-3.4Z" transform="translate(-69.663 -20.642)"/><path class="b" d="M421.9,181.116c0,1.869-.074,3.742.02,5.606a6.258,6.258,0,0,1-2.137,4.871,6.989,6.989,0,0,1-5.276,1.926c-2.551,0-4.253-1.287-5.775-3.039-.531-.61-.428-1.011.208-1.488.194-.145.375-.309.573-.45a1.218,1.218,0,0,1,1.8.167c1.376,1.839,3.178,2.058,5.216,1.437a4.173,4.173,0,0,0,2.286-3.474c-.05-.53-.33-.295-.552-.163a7.719,7.719,0,0,1-3.876.95,6.246,6.246,0,0,1-4.13-1.38,7.347,7.347,0,0,1-3.171-6.261,7.632,7.632,0,0,1,2.651-5.352c2.019-1.887,4.4-1.812,6.841-1.638.7.049,1.192.615,1.825.85.2.075.406.253.6.086.589-.5,1.289-.287,1.949-.343.7-.06.961.254.954.95C421.885,176.619,421.9,178.867,421.9,181.116ZM410.307,180a4.066,4.066,0,0,0,4.117,4.359c2.715-.022,4.415-1.658,4.417-4.1,0-2.87-1.433-4.324-4.254-4.556C412.613,175.541,409.89,177.8,410.307,180Z" transform="translate(-157.081 -47.912)"/><path class="b" d="M261.58,131c0-2.412.066-4.827-.022-7.235-.072-1.992,1.061-2.3,2.8-1.766a2.07,2.07,0,0,0,1.647-.095c1.63-.706,3.245-1.253,5.131-.469a8.9,8.9,0,0,1,3.973,2.784,4.836,4.836,0,0,1,1.088,2.313c.065.567.557.978.5,1.6-.266,2.915-1.269,5.365-4.013,6.837a6.908,6.908,0,0,1-6.865.067c-.693-.362-.825-.275-.836.54-.013,1.057.006,2.114-.008,3.171-.012.906-.312,1.208-1.214,1.268-.216.014-.434.01-.651.008-1.236-.015-1.53-.3-1.533-1.547C261.577,135.99,261.581,133.5,261.58,131Zm7.642-6.6c-2.689,0-4.085,1.493-4.28,4.066a4.315,4.315,0,0,0,4.047,4.271c2.381-.1,4.371-1.6,4.418-3.517C273.486,126.061,271.715,124.141,269.222,124.408Z" transform="translate(-96.484 -26.387)"/><path class="b" d="M263.8,81.1q0-3.738,0-7.475c0-.558-.134-1.224.546-1.481a2.052,2.052,0,0,1,2.152.167c.306.25.651.393.962.158a12.351,12.351,0,0,1,2.373-.971,3.159,3.159,0,0,1,2-.146c2.957.6,5.437,2.07,6.291,5.053,1.018,3.555.13,6.917-3.483,8.857a7.885,7.885,0,0,1-3.762,1.041,7.076,7.076,0,0,1-2.838-.812c-1.014-.439-1.142-.418-1.149.719,0,.893.008,1.788-.008,2.681-.017,1.007-.3,1.278-1.331,1.3-.217,0-.434.007-.65,0-.895-.03-1.1-.215-1.1-1.126C263.789,86.408,263.8,83.754,263.8,81.1Zm7.231,1.922a4.474,4.474,0,0,0,4.5-4.16c.1-1.8-2.153-4.366-4.143-4.32-2.9.068-4.468,1.9-4.452,4.282A4.046,4.046,0,0,0,271.027,83.022Z" transform="translate(-97.413 -5.652)"/><path class="b" d="M327.757,181.121c-1.572,0-3.143,0-4.714,0-.237,0-.522-.062-.677.171-.172.26.089.436.192.647,1.043,2.125,3.244,2.371,5.087,1.907a3.77,3.77,0,0,0,1.707-1.323,1.2,1.2,0,0,1,1.716-.183,9.324,9.324,0,0,1,.746.627.8.8,0,0,1,.134,1.213c-1.81,2.349-4.169,3.565-7.128,3.031a7.077,7.077,0,0,1-4.718-3.3,7.425,7.425,0,0,1-1.343-3.926,8.216,8.216,0,0,1,4.149-6.772,7.52,7.52,0,0,1,3.1-.76,6.7,6.7,0,0,1,3.977,1.117,8.51,8.51,0,0,1,3.126,4.037,6.947,6.947,0,0,1,.214,2.968c-.026.55-.524.535-.936.536-1.544,0-3.088,0-4.633,0Zm-5.277-2.992c.3.025.516.056.728.056q3.088,0,6.177-.008c.4,0,.584-.213.336-.568a4.089,4.089,0,0,0-3.136-2.03A3.883,3.883,0,0,0,322.48,178.13Z" transform="translate(-120.304 -47.791)"/><path class="b" d="M254.5,178.376c-.173,1.88.227,4.171.029,6.477-.145,1.7-.745,2.418-2.308,1.794a3.338,3.338,0,0,0-2.833.278,6.019,6.019,0,0,1-4.683.005,7.325,7.325,0,0,1-4.308-3.792,5.957,5.957,0,0,1-.839-3.734,8.284,8.284,0,0,1,3.272-5.432c1.963-1.408,4.074-1.249,6.218-1.1a4.688,4.688,0,0,1,1.586.768c.216.113.421.288.671.11a3.51,3.51,0,0,1,2.287-.284c.617.005.917.371.91,1C254.5,175.628,254.5,176.794,254.5,178.376Zm-3.263,1.6a4.207,4.207,0,0,0-4.22-4.267,4.268,4.268,0,0,0-4.191,4.743,4.224,4.224,0,0,0,8.411-.476Z" transform="translate(-87.297 -47.925)"/><path class="b" d="M295.85,181.207q1.31-1.58,2.618-3.161c1.3-1.58,2.591-3.175,3.919-4.735.486-.571,2.811-.714,3.389-.285.337.25.229.519.04.773-.629.842-1.254,1.689-1.912,2.508-.8.991-1.6,1.98-2.447,2.924a1.037,1.037,0,0,0,.071,1.705c1.567,1.5,2.88,3.224,4.3,4.858a1.028,1.028,0,0,1,.327,1.1c-.18.46-.62.321-.982.382a3.47,3.47,0,0,1-3.633-1.719c-.638-.9-1.464-1.661-2.156-2.523-.387-.482-.65-.4-1.035-.014a35.306,35.306,0,0,0-2.611,3.208,2.324,2.324,0,0,1-2.2,1.055c-.865-.085-1.161-.375-1.23-1.266-.187-2.385.134-4.76.085-7.141-.031-1.542-.11-3.083-.125-4.624-.013-1.178.374-1.464,1.806-1.448,1.2.013,1.579.343,1.582,1.43.006,2,0,4.009,0,6.014v.882Z" transform="translate(-109.261 -47.925)"/><path class="b" d="M247.317,78.917A7.506,7.506,0,0,1,239.8,86.3c-4.522-.27-7.14-3.29-7.381-7.447-.219-3.766,3.711-7.593,7.5-7.436A7.659,7.659,0,0,1,247.317,78.917Zm-7.462,4.169a4.018,4.018,0,0,0,4.227-4.023,4.134,4.134,0,0,0-4.07-4.407,4.462,4.462,0,0,0-4.434,4.135C235.524,80.824,237.717,83.359,239.855,83.086Z" transform="translate(-84.348 -5.717)"/><path class="b" d="M382.843,182.45c0,1.193.014,2.386,0,3.578-.015.98-.25,1.2-1.2,1.227-1.724.044-2-.266-1.782-1.991a6.781,6.781,0,0,0,.039-.974c-.071-3.249.151-6.5-.122-9.749-.067-.786.255-1.1,1.029-1.123a7.466,7.466,0,0,1,1.863.084,1.625,1.625,0,0,0,1.168-.221,5.117,5.117,0,0,1,4.513-.025,6.5,6.5,0,0,1,2.448,1.808,6.349,6.349,0,0,1,1.459,4.427c.029,2.114.01,4.228.008,6.342,0,.528-.024,1.118-.6,1.308a2.6,2.6,0,0,1-1.98-.06c-.394-.193-.346-.644-.347-1.021q-.009-3.293,0-6.586a3.3,3.3,0,0,0-1.149-2.747,2.871,2.871,0,0,0-2.718-.849c-1.509.508-2.623,1.379-2.622,3.157q0,1.708,0,3.415Z" transform="translate(-145.708 -47.91)"/><path class="b" d="M271.074,180.126c0-1.816,0-3.631,0-5.447,0-1.048.188-1.316,1.237-1.21a16.883,16.883,0,0,0,4.616-.589,5.28,5.28,0,0,1,2.1.123,1.185,1.185,0,0,1,.985,1.3,1.768,1.768,0,0,1-2.141,1.83,2.891,2.891,0,0,0-3.428,2.9c.152,2.212.039,4.442.031,6.664,0,1.279-.526,1.687-2.105,1.678-.806,0-1.284-.589-1.291-1.638C271.064,183.865,271.073,182,271.074,180.126Z" transform="translate(-100.446 -47.943)"/><path class="b" d="M350.485,175.054c0-2.545.027-5.091-.012-7.635-.025-1.657.741-1.783,2.264-1.53.483.08.653.528.658,1,.006.6.029,1.192,0,1.787-.027.616.211.91.849.875a11.462,11.462,0,0,1,1.217.025,1.042,1.042,0,0,1,.55.106c.784.622.459,1.489.414,2.266a.882.882,0,0,1-1.012.838c-.054,0-.108,0-.162,0-2,.02-1.848-.277-1.851,1.9,0,2.762,0,5.523,0,8.285,0,1.161-.355,1.53-1.4,1.52s-1.508-.459-1.512-1.562C350.479,180.307,350.486,177.681,350.485,175.054Z" transform="translate(-133.509 -45.015)"/><path class="b" d="M370.741,180c0,1.949.005,3.9,0,5.847,0,1.059-.432,1.434-1.6,1.44-1.181.006-1.645-.361-1.649-1.393q-.019-5.848,0-11.7c0-1.136.345-1.392,1.684-1.383,1.255.009,1.556.273,1.561,1.417C370.747,176.154,370.741,178.076,370.741,180Z" transform="translate(-140.593 -47.941)"/></g></svg>