<svg xmlns="http://www.w3.org/2000/svg" width="30.625" height="30.625" viewBox="0 0 30.625 30.625"><defs><style>.a{fill:#6a0752;}</style></defs><path class="a" d="M27.344-28.437H3.281A3.282,3.282,0,0,0,0-25.156V-1.094A3.282,3.282,0,0,0,3.281,2.187h9.382V-8.224H8.357v-4.9h4.307V-16.86c0-4.249,2.529-6.6,6.4-6.6a26.093,26.093,0,0,1,3.8.331v4.17H20.724a2.451,2.451,0,0,0-2.763,2.648v3.182h4.7l-.752,4.9h-3.95V2.187h9.382a3.282,3.282,0,0,0,3.281-3.281V-25.156A3.282,3.282,0,0,0,27.344-28.437Z" transform="translate(0 28.438)"/></svg>