<svg xmlns="http://www.w3.org/2000/svg" width="30.625" height="30.625" viewBox="0 0 30.625 30.625"><defs><style>.a{fill:#6a0752;}</style></defs><path class="a" d="M15.312-16.771a3.648,3.648,0,0,0-3.645,3.646,3.648,3.648,0,0,0,3.646,3.646,3.648,3.648,0,0,0,3.646-3.646A3.651,3.651,0,0,0,15.312-16.771Zm8.525-2.8a4.222,4.222,0,0,0-2.079-2.079c-1.436-.567-4.854-.44-6.446-.44s-5.007-.132-6.447.44a4.221,4.221,0,0,0-2.079,2.079c-.566,1.436-.44,4.857-.44,6.448s-.126,5.009.442,6.449A4.221,4.221,0,0,0,8.868-4.6c1.436.567,4.854.44,6.447.44s5.007.132,6.446-.44A4.222,4.222,0,0,0,23.84-6.677c.571-1.436.44-4.857.44-6.448s.131-5.008-.44-6.448ZM15.312-7.52a5.608,5.608,0,0,1-5.605-5.605,5.608,5.608,0,0,1,5.605-5.605,5.608,5.608,0,0,1,5.605,5.605v.007a5.6,5.6,0,0,1-5.6,5.6Zm5.837-10.138h0a1.309,1.309,0,0,1-1.308-1.308,1.309,1.309,0,0,1,1.308-1.308,1.309,1.309,0,0,1,1.308,1.308v.005a1.306,1.306,0,0,1-1.3,1.306Zm6.195-10.78H3.281A3.282,3.282,0,0,0,0-25.156V-1.094A3.282,3.282,0,0,0,3.281,2.187H27.344a3.282,3.282,0,0,0,3.281-3.281V-25.156A3.282,3.282,0,0,0,27.344-28.437ZM26.173-8.613a6.5,6.5,0,0,1-1.767,4.58,6.507,6.507,0,0,1-4.58,1.767c-1.805.1-7.218.1-9.023,0a6.516,6.516,0,0,1-4.58-1.767,6.485,6.485,0,0,1-1.767-4.58c-.1-1.806-.1-7.219,0-9.023a6.483,6.483,0,0,1,1.767-4.58,6.519,6.519,0,0,1,4.58-1.762c1.805-.1,7.218-.1,9.023,0a6.508,6.508,0,0,1,4.58,1.767,6.508,6.508,0,0,1,1.767,4.583C26.275-15.829,26.275-10.421,26.173-8.613Z" transform="translate(0 28.438)"/></svg>