<svg xmlns="http://www.w3.org/2000/svg" width="30.625" height="30.625" viewBox="0 0 30.625 30.625"><defs><style>.a{fill:#6a0752;}</style></defs><path class="a" d="M28.437-28.437H2.181A2.2,2.2,0,0,0,0-26.229V-.02A2.2,2.2,0,0,0,2.181,2.187H28.437A2.2,2.2,0,0,0,30.625-.02V-26.229A2.2,2.2,0,0,0,28.437-28.437ZM9.256-2.187H4.717V-16.8H9.263V-2.187ZM6.986-18.8a2.633,2.633,0,0,1-2.632-2.632,2.633,2.633,0,0,1,2.632-2.632,2.637,2.637,0,0,1,2.632,2.632A2.629,2.629,0,0,1,6.986-18.8ZM26.27-2.187H21.731V-9.3c0-1.7-.034-3.876-2.358-3.876-2.365,0-2.728,1.846-2.728,3.753v7.232H12.106V-16.8h4.354v2h.062a4.781,4.781,0,0,1,4.3-2.358c4.594,0,5.448,3.028,5.448,6.966Z" transform="translate(0 28.438)"/></svg>