<svg xmlns="http://www.w3.org/2000/svg" width="30.625" height="30.625" viewBox="0 0 30.625 30.625"><defs><style>.a{fill:#6a0752;}</style></defs><path class="a" d="M27.344-28.437H3.281A3.282,3.282,0,0,0,0-25.156V-1.094A3.282,3.282,0,0,0,3.281,2.187H27.344a3.282,3.282,0,0,0,3.281-3.281V-25.156A3.282,3.282,0,0,0,27.344-28.437ZM24-17.582c.014.191.014.39.014.581A12.669,12.669,0,0,1,11.259-4.245a12.7,12.7,0,0,1-6.884-2.01,9.451,9.451,0,0,0,1.08.055A8.989,8.989,0,0,0,11.02-8.114a4.489,4.489,0,0,1-4.19-3.11,4.832,4.832,0,0,0,2.023-.082,4.484,4.484,0,0,1-3.589-4.4v-.055a4.481,4.481,0,0,0,2.023.567,5,5,0,0,1-2-3.725v-.007A4.427,4.427,0,0,1,5.9-21.191,12.73,12.73,0,0,0,15.142-16.5a4.489,4.489,0,0,1,4.375-5.51A4.467,4.467,0,0,1,22.791-20.6a8.785,8.785,0,0,0,2.844-1.08,4.472,4.472,0,0,1-1.969,2.468,8.921,8.921,0,0,0,2.584-.7A9.436,9.436,0,0,1,24-17.582Z" transform="translate(0 28.438)"/></svg>